<svg version="1" xmlns="http://www.w3.org/2000/svg" width="1318.667" height="1318.667" viewBox="0 0 989.000000 989.000000"><path d="M301.5 169.1c-96.2 54.4-175.3 99.3-175.7 99.7-.4.4 27.4 17 61.8 36.9l62.5 36L364 279.1l114-62.6v-73.3c0-40.2-.3-73.2-.7-73.2-.5.1-79.5 44.6-175.8 99.1zM508.2 143.2l.3 73.2 114 62.7 114 62.6 4.6-2.6c65.5-37.5 120.6-69.7 120.1-70.2C859.9 267.6 509.7 70 508.9 70c-.5 0-.8 31.5-.7 73.2zM386.8 300.3c-58.2 32-105.7 58.6-105.5 59 .2.8 202.2 117.9 209.3 121.4l3.1 1.5 106.1-61.3c82-47.3 105.9-61.6 105-62.4-1.5-1.4-208.5-115.2-210.8-115.9-.8-.2-49.1 25.7-107.2 57.7zM110 499.5c0 112 .4 203.5.8 203.3.5-.2 28.8-16.5 63-36.2l62.2-35.9-.2-131.4-.3-131.5-61.5-35.5c-33.8-19.5-62.1-35.7-62.7-36-1-.4-1.3 40.6-1.3 203.2zM812.8 332.2L750 368.5v131l.1 131 62.5 36c34.3 19.8 62.9 36.1 63.4 36.3.7.2 1-71 1-203.2 0-112-.3-203.6-.7-203.6-.5 0-29 16.3-63.5 36.2zM266 501.4v115.4l105.1 57.9c57.9 31.8 105.8 57.9 106.5 58.1 1.2.3 1.4-17.9 1.4-112.1V508.2l-105.9-61.1C314.9 413.5 267 386 266.6 386c-.3 0-.6 51.9-.6 115.4zM613.5 446.9l-105 60.8-.3 112.6c-.1 62 .1 112.7.4 112.7.4 0 48.3-26.2 106.5-58.2L721 616.6V501.3c0-91.6-.3-115.3-1.2-115.2-.7 0-48.5 27.4-106.3 60.8zM199.1 686.4c-35.4 20.5-64.3 37.6-64.3 38.1 0 .7 341.6 194.5 342.8 194.5.2 0 .4-34.1.4-75.9v-75.9L373.8 710c-57.4-31.5-105.6-58.1-107.3-59l-3-1.8-64.4 37.2zM614.8 708.8L508 767.5v75.9c0 67.5.2 75.7 1.5 75.2 1.7-.6 339-191.3 341.8-193.1 1.5-1-7.1-6.3-62.6-38.4-35.5-20.4-65.1-37.1-65.8-37.1-.8.1-49.4 26.5-108.1 58.8z"/></svg>